<svg xmlns="http://www.w3.org/2000/svg" width="23.8" height="28" viewBox="0 0 23.8 28"><defs><style>.a{fill:#fff;}</style></defs><g transform="translate(-38.4)"><path class="a" d="M40.733,28h15.4a.467.467,0,0,0,.467-.467V25.86l1.4-1.4L59.537,26a.467.467,0,0,0,.8-.33V22.4h1.4a.467.467,0,0,0,.467-.467V.467A.467.467,0,0,0,61.733,0H47.267a2.8,2.8,0,0,0-2.8,2.8V5.6H41.2a2.8,2.8,0,0,0-2.8,2.8V25.667A2.336,2.336,0,0,0,40.733,28ZM59.4,24.54l-1.07-1.07a.466.466,0,0,0-.66,0L56.6,24.54V20.533h2.8Zm1.867-3.073h-.933v-1.4a.467.467,0,0,0-.467-.467H56.133a.467.467,0,0,0-.467.467v1.4H46.8a1.4,1.4,0,0,1,0-2.8H61.267Zm0-3.733h-12.6V.933h12.6Zm-14-16.8h.467v16.8H46.8a2.309,2.309,0,0,0-1.4.479V2.8A1.869,1.869,0,0,1,47.267.933Zm-2.8,19.133A2.336,2.336,0,0,0,46.8,22.4h8.867v.933H42.6V6.533h1.867ZM41.2,6.533h.467v16.8h-.933a2.309,2.309,0,0,0-1.4.479V8.4A1.868,1.868,0,0,1,41.2,6.533Zm-.467,17.733H55.667v2.8H40.733a1.4,1.4,0,0,1,0-2.8Z"/><path class="a" d="M243.567,39.266h7.7a.367.367,0,0,0,.367-.367V34.5a.367.367,0,0,0-.367-.367h-7.7a.367.367,0,0,0-.367.367v4.4A.367.367,0,0,0,243.567,39.266Zm.367-4.4H250.9v3.667h-6.967Z" transform="translate(-190.9 -32.666)"/><rect class="a" width="5.5" height="0.733" transform="translate(52.633 9.872)"/><rect class="a" width="5.5" height="0.733" transform="translate(52.633 11.753)"/><rect class="a" width="1.833" height="0.733" transform="translate(56.546 15.984)"/></g></svg>