<svg xmlns="http://www.w3.org/2000/svg" width="23.334" height="28" viewBox="0 0 23.334 28"><defs><style>.a{fill:#fff;}</style></defs><g transform="translate(-42.658)"><path class="a" d="M65.408,96.709H43.242a.579.579,0,0,1-.509-.32.673.673,0,0,1,.008-.634l2-3.6a11.367,11.367,0,0,0,1.413-5.509V83.484c0-4.86,3.664-8.817,8.167-8.817s8.167,3.956,8.167,8.817v3.158A11.367,11.367,0,0,0,63.9,92.15l2,3.6a.673.673,0,0,1,.008.634A.579.579,0,0,1,65.408,96.709ZM44.272,95.449H64.378L62.9,92.8a12.7,12.7,0,0,1-1.579-6.157V83.484a7.3,7.3,0,0,0-7-7.557,7.3,7.3,0,0,0-7,7.557v3.158a12.691,12.691,0,0,1-1.58,6.157Z" transform="translate(0 -71.459)"/><path class="a" d="M216.541,4.125a.459.459,0,0,1-.458-.458V1.833a.917.917,0,1,0-1.833,0V3.667a.458.458,0,1,1-.917,0V1.833a1.833,1.833,0,1,1,3.667,0V3.667A.459.459,0,0,1,216.541,4.125Z" transform="translate(-160.841)"/><path class="a" d="M204.959,430.346a2.29,2.29,0,0,1-1.982-3.44.459.459,0,1,1,.792.464,1.375,1.375,0,1,0,2.382,0,.459.459,0,1,1,.792-.464,2.29,2.29,0,0,1-1.984,3.44Z" transform="translate(-150.633 -402.346)"/></g></svg>