<svg xmlns="http://www.w3.org/2000/svg" width="30.886" height="28" viewBox="0 0 30.886 28"><defs><style>.a{fill:#fff;}</style></defs><path class="a" d="M54.354,58.69H47.543V57.374a.532.532,0,0,0-.272-.463l-7.3-4.1V50.723h1.443v.793a.533.533,0,0,0,.533.533H46.3a.532.532,0,0,0,.5-.714l-.437-1.241.442-1.214a.533.533,0,0,0-.5-.714H44.326v-.772a.533.533,0,0,0-.533-.533H39.976v-.65a.533.533,0,1,0-1.065,0v6.6l-7.3,4.1a.532.532,0,0,0-.272.463v1.315H24.533a.533.533,0,0,0-.533.533V73.147a.533.533,0,0,0,.533.533H54.354a.533.533,0,0,0,.533-.533V59.222a.533.533,0,0,0-.533-.533Zm-10.049-8.52v-.916h1.214l-.218.682a.533.533,0,0,0,0,.367l.25.682H42.484v-.261h1.31a.533.533,0,0,0,.533-.533Zm-4.329-2.242h3.286v1.731H39.976ZM31.343,72.615H25.065V59.755h6.278Zm7.567,0h-2.8V66.534h2.8Zm3.861,0h-2.8V66.534h2.8Zm3.728-13.4v13.4H43.836V66a.533.533,0,0,0-.533-.533H35.582A.533.533,0,0,0,35.05,66v6.614H32.387V57.7l7.056-3.973,7.035,3.951Zm7.322,13.4H47.543V59.755h6.278Z" transform="translate(-24 -45.68)"/></svg>